<svg xmlns="http://www.w3.org/2000/svg" xmlns:xlink="http://www.w3.org/1999/xlink" width="500" zoomAndPan="magnify" viewBox="0 0 375 149.999998" height="200" preserveAspectRatio="xMidYMid meet" version="1.0"><defs><g/></defs><g fill="#000000" fill-opacity="1"><g transform="translate(25.012372, 45.369713)"><g><path d="M 8.03125 -12.21875 C 6.863281 -12.21875 5.960938 -11.78125 5.328125 -10.90625 C 4.691406 -10.03125 4.375 -8.8125 4.375 -7.25 C 4.375 -4 5.59375 -2.375 8.03125 -2.375 C 9.050781 -2.375 10.289062 -2.628906 11.75 -3.140625 L 11.75 -0.546875 C 10.550781 -0.046875 9.21875 0.203125 7.75 0.203125 C 5.625 0.203125 4 -0.4375 2.875 -1.71875 C 1.75 -3.007812 1.1875 -4.863281 1.1875 -7.28125 C 1.1875 -8.789062 1.460938 -10.113281 2.015625 -11.25 C 2.566406 -12.394531 3.359375 -13.269531 4.390625 -13.875 C 5.429688 -14.488281 6.644531 -14.796875 8.03125 -14.796875 C 9.445312 -14.796875 10.867188 -14.453125 12.296875 -13.765625 L 11.3125 -11.25 C 10.757812 -11.507812 10.207031 -11.734375 9.65625 -11.921875 C 9.101562 -12.117188 8.5625 -12.21875 8.03125 -12.21875 Z M 8.03125 -12.21875 "/></g></g><g transform="translate(38.033493, 45.369713)"><g><path d="M 10.234375 0 L 1.84375 0 L 1.84375 -14.59375 L 10.234375 -14.59375 L 10.234375 -12.0625 L 4.9375 -12.0625 L 4.9375 -8.859375 L 9.875 -8.859375 L 9.875 -6.3125 L 4.9375 -6.3125 L 4.9375 -2.5625 L 10.234375 -2.5625 Z M 10.234375 0 "/></g></g><g transform="translate(49.47811, 45.369713)"><g><path d="M 14.78125 0 L 10.84375 0 L 4.5 -11.03125 L 4.40625 -11.03125 C 4.53125 -9.082031 4.59375 -7.691406 4.59375 -6.859375 L 4.59375 0 L 1.84375 0 L 1.84375 -14.59375 L 5.734375 -14.59375 L 12.078125 -3.65625 L 12.140625 -3.65625 C 12.046875 -5.550781 12 -6.894531 12 -7.6875 L 12 -14.59375 L 14.78125 -14.59375 Z M 14.78125 0 "/></g></g><g transform="translate(66.091264, 45.369713)"><g><path d="M 7.46875 0 L 4.375 0 L 4.375 -12.015625 L 0.40625 -12.015625 L 0.40625 -14.59375 L 11.421875 -14.59375 L 11.421875 -12.015625 L 7.46875 -12.015625 Z M 7.46875 0 "/></g></g><g transform="translate(77.925019, 45.369713)"><g><path d="M 4.9375 -8.109375 L 5.921875 -8.109375 C 6.898438 -8.109375 7.625 -8.269531 8.09375 -8.59375 C 8.5625 -8.925781 8.796875 -9.441406 8.796875 -10.140625 C 8.796875 -10.828125 8.554688 -11.316406 8.078125 -11.609375 C 7.597656 -11.910156 6.863281 -12.0625 5.875 -12.0625 L 4.9375 -12.0625 Z M 4.9375 -5.59375 L 4.9375 0 L 1.84375 0 L 1.84375 -14.59375 L 6.09375 -14.59375 C 8.070312 -14.59375 9.535156 -14.226562 10.484375 -13.5 C 11.441406 -12.78125 11.921875 -11.6875 11.921875 -10.21875 C 11.921875 -9.363281 11.679688 -8.597656 11.203125 -7.921875 C 10.734375 -7.253906 10.066406 -6.734375 9.203125 -6.359375 C 11.398438 -3.078125 12.828125 -0.957031 13.484375 0 L 10.0625 0 L 6.578125 -5.59375 Z M 4.9375 -5.59375 "/></g></g><g transform="translate(91.4151, 45.369713)"><g><path d="M 15.078125 -7.3125 C 15.078125 -4.894531 14.476562 -3.035156 13.28125 -1.734375 C 12.082031 -0.441406 10.367188 0.203125 8.140625 0.203125 C 5.898438 0.203125 4.179688 -0.441406 2.984375 -1.734375 C 1.785156 -3.035156 1.1875 -4.898438 1.1875 -7.328125 C 1.1875 -9.765625 1.785156 -11.617188 2.984375 -12.890625 C 4.191406 -14.171875 5.914062 -14.8125 8.15625 -14.8125 C 10.394531 -14.8125 12.109375 -14.164062 13.296875 -12.875 C 14.484375 -11.59375 15.078125 -9.738281 15.078125 -7.3125 Z M 4.4375 -7.3125 C 4.4375 -5.6875 4.742188 -4.457031 5.359375 -3.625 C 5.972656 -2.800781 6.898438 -2.390625 8.140625 -2.390625 C 10.597656 -2.390625 11.828125 -4.03125 11.828125 -7.3125 C 11.828125 -10.601562 10.601562 -12.25 8.15625 -12.25 C 6.925781 -12.25 6 -11.832031 5.375 -11 C 4.75 -10.175781 4.4375 -8.945312 4.4375 -7.3125 Z M 4.4375 -7.3125 "/></g></g><g transform="translate(107.679029, 45.369713)"><g/></g><g transform="translate(112.987256, 45.369713)"><g><path d="M 13.9375 -7.4375 C 13.9375 -5.03125 13.253906 -3.1875 11.890625 -1.90625 C 10.523438 -0.632812 8.550781 0 5.96875 0 L 1.84375 0 L 1.84375 -14.59375 L 6.421875 -14.59375 C 8.796875 -14.59375 10.640625 -13.960938 11.953125 -12.703125 C 13.273438 -11.441406 13.9375 -9.6875 13.9375 -7.4375 Z M 10.734375 -7.359375 C 10.734375 -10.492188 9.347656 -12.0625 6.578125 -12.0625 L 4.9375 -12.0625 L 4.9375 -2.5625 L 6.25 -2.5625 C 9.238281 -2.5625 10.734375 -4.160156 10.734375 -7.359375 Z M 10.734375 -7.359375 "/></g></g><g transform="translate(128.113708, 45.369713)"><g><path d="M 10.234375 0 L 1.84375 0 L 1.84375 -14.59375 L 10.234375 -14.59375 L 10.234375 -12.0625 L 4.9375 -12.0625 L 4.9375 -8.859375 L 9.875 -8.859375 L 9.875 -6.3125 L 4.9375 -6.3125 L 4.9375 -2.5625 L 10.234375 -2.5625 Z M 10.234375 0 "/></g></g><g transform="translate(139.558325, 45.369713)"><g><path d="M 14.78125 0 L 10.84375 0 L 4.5 -11.03125 L 4.40625 -11.03125 C 4.53125 -9.082031 4.59375 -7.691406 4.59375 -6.859375 L 4.59375 0 L 1.84375 0 L 1.84375 -14.59375 L 5.734375 -14.59375 L 12.078125 -3.65625 L 12.140625 -3.65625 C 12.046875 -5.550781 12 -6.894531 12 -7.6875 L 12 -14.59375 L 14.78125 -14.59375 Z M 14.78125 0 "/></g></g><g transform="translate(156.171479, 45.369713)"><g><path d="M 7.46875 0 L 4.375 0 L 4.375 -12.015625 L 0.40625 -12.015625 L 0.40625 -14.59375 L 11.421875 -14.59375 L 11.421875 -12.015625 L 7.46875 -12.015625 Z M 7.46875 0 "/></g></g><g transform="translate(168.005234, 45.369713)"><g><path d="M 10.765625 0 L 9.703125 -3.46875 L 4.390625 -3.46875 L 3.328125 0 L 0 0 L 5.15625 -14.65625 L 8.9375 -14.65625 L 14.09375 0 Z M 8.96875 -6.0625 C 7.988281 -9.207031 7.4375 -10.988281 7.3125 -11.40625 C 7.195312 -11.820312 7.113281 -12.148438 7.0625 -12.390625 C 6.832031 -11.535156 6.203125 -9.425781 5.171875 -6.0625 Z M 8.96875 -6.0625 "/></g></g><g transform="translate(182.103965, 45.369713)"><g><path d="M 1.84375 0 L 1.84375 -14.59375 L 4.9375 -14.59375 L 4.9375 -2.5625 L 10.84375 -2.5625 L 10.84375 0 Z M 1.84375 0 "/></g></g><g transform="translate(193.648361, 45.369713)"><g/></g><g transform="translate(198.956588, 45.369713)"><g><path d="M 0.609375 -4.234375 L 0.609375 -6.71875 L 5.96875 -6.71875 L 5.96875 -4.234375 Z M 0.609375 -4.234375 "/></g></g><g transform="translate(205.532005, 45.369713)"><g/></g><g transform="translate(210.840232, 45.369713)"><g><path d="M 4.9375 -7.71875 L 5.953125 -7.71875 C 6.898438 -7.71875 7.609375 -7.90625 8.078125 -8.28125 C 8.554688 -8.664062 8.796875 -9.210938 8.796875 -9.921875 C 8.796875 -10.648438 8.597656 -11.1875 8.203125 -11.53125 C 7.804688 -11.882812 7.1875 -12.0625 6.34375 -12.0625 L 4.9375 -12.0625 Z M 11.921875 -10.046875 C 11.921875 -8.472656 11.425781 -7.269531 10.4375 -6.4375 C 9.457031 -5.601562 8.0625 -5.1875 6.25 -5.1875 L 4.9375 -5.1875 L 4.9375 0 L 1.84375 0 L 1.84375 -14.59375 L 6.5 -14.59375 C 8.269531 -14.59375 9.613281 -14.207031 10.53125 -13.4375 C 11.457031 -12.675781 11.921875 -11.546875 11.921875 -10.046875 Z M 11.921875 -10.046875 "/></g></g><g transform="translate(223.671774, 45.369713)"><g><path d="M 15.078125 -7.3125 C 15.078125 -4.894531 14.476562 -3.035156 13.28125 -1.734375 C 12.082031 -0.441406 10.367188 0.203125 8.140625 0.203125 C 5.898438 0.203125 4.179688 -0.441406 2.984375 -1.734375 C 1.785156 -3.035156 1.1875 -4.898438 1.1875 -7.328125 C 1.1875 -9.765625 1.785156 -11.617188 2.984375 -12.890625 C 4.191406 -14.171875 5.914062 -14.8125 8.15625 -14.8125 C 10.394531 -14.8125 12.109375 -14.164062 13.296875 -12.875 C 14.484375 -11.59375 15.078125 -9.738281 15.078125 -7.3125 Z M 4.4375 -7.3125 C 4.4375 -5.6875 4.742188 -4.457031 5.359375 -3.625 C 5.972656 -2.800781 6.898438 -2.390625 8.140625 -2.390625 C 10.597656 -2.390625 11.828125 -4.03125 11.828125 -7.3125 C 11.828125 -10.601562 10.601562 -12.25 8.15625 -12.25 C 6.925781 -12.25 6 -11.832031 5.375 -11 C 4.75 -10.175781 4.4375 -8.945312 4.4375 -7.3125 Z M 4.4375 -7.3125 "/></g></g><g transform="translate(239.935703, 45.369713)"><g><path d="M 13.9375 -7.4375 C 13.9375 -5.03125 13.253906 -3.1875 11.890625 -1.90625 C 10.523438 -0.632812 8.550781 0 5.96875 0 L 1.84375 0 L 1.84375 -14.59375 L 6.421875 -14.59375 C 8.796875 -14.59375 10.640625 -13.960938 11.953125 -12.703125 C 13.273438 -11.441406 13.9375 -9.6875 13.9375 -7.4375 Z M 10.734375 -7.359375 C 10.734375 -10.492188 9.347656 -12.0625 6.578125 -12.0625 L 4.9375 -12.0625 L 4.9375 -2.5625 L 6.25 -2.5625 C 9.238281 -2.5625 10.734375 -4.160156 10.734375 -7.359375 Z M 10.734375 -7.359375 "/></g></g><g transform="translate(255.062155, 45.369713)"><g><path d="M 15.078125 -7.3125 C 15.078125 -4.894531 14.476562 -3.035156 13.28125 -1.734375 C 12.082031 -0.441406 10.367188 0.203125 8.140625 0.203125 C 5.898438 0.203125 4.179688 -0.441406 2.984375 -1.734375 C 1.785156 -3.035156 1.1875 -4.898438 1.1875 -7.328125 C 1.1875 -9.765625 1.785156 -11.617188 2.984375 -12.890625 C 4.191406 -14.171875 5.914062 -14.8125 8.15625 -14.8125 C 10.394531 -14.8125 12.109375 -14.164062 13.296875 -12.875 C 14.484375 -11.59375 15.078125 -9.738281 15.078125 -7.3125 Z M 4.4375 -7.3125 C 4.4375 -5.6875 4.742188 -4.457031 5.359375 -3.625 C 5.972656 -2.800781 6.898438 -2.390625 8.140625 -2.390625 C 10.597656 -2.390625 11.828125 -4.03125 11.828125 -7.3125 C 11.828125 -10.601562 10.601562 -12.25 8.15625 -12.25 C 6.925781 -12.25 6 -11.832031 5.375 -11 C 4.75 -10.175781 4.4375 -8.945312 4.4375 -7.3125 Z M 4.4375 -7.3125 "/></g></g><g transform="translate(271.326083, 45.369713)"><g><path d="M 1.84375 0 L 1.84375 -14.59375 L 4.9375 -14.59375 L 4.9375 -2.5625 L 10.84375 -2.5625 L 10.84375 0 Z M 1.84375 0 "/></g></g><g transform="translate(282.87048, 45.369713)"><g><path d="M 15.078125 -7.3125 C 15.078125 -4.894531 14.476562 -3.035156 13.28125 -1.734375 C 12.082031 -0.441406 10.367188 0.203125 8.140625 0.203125 C 5.898438 0.203125 4.179688 -0.441406 2.984375 -1.734375 C 1.785156 -3.035156 1.1875 -4.898438 1.1875 -7.328125 C 1.1875 -9.765625 1.785156 -11.617188 2.984375 -12.890625 C 4.191406 -14.171875 5.914062 -14.8125 8.15625 -14.8125 C 10.394531 -14.8125 12.109375 -14.164062 13.296875 -12.875 C 14.484375 -11.59375 15.078125 -9.738281 15.078125 -7.3125 Z M 4.4375 -7.3125 C 4.4375 -5.6875 4.742188 -4.457031 5.359375 -3.625 C 5.972656 -2.800781 6.898438 -2.390625 8.140625 -2.390625 C 10.597656 -2.390625 11.828125 -4.03125 11.828125 -7.3125 C 11.828125 -10.601562 10.601562 -12.25 8.15625 -12.25 C 6.925781 -12.25 6 -11.832031 5.375 -11 C 4.75 -10.175781 4.4375 -8.945312 4.4375 -7.3125 Z M 4.4375 -7.3125 "/></g></g><g transform="translate(299.134409, 45.369713)"><g><path d="M 7.375 -8.1875 L 13.15625 -8.1875 L 13.15625 -0.625 C 12.21875 -0.320312 11.332031 -0.109375 10.5 0.015625 C 9.675781 0.140625 8.832031 0.203125 7.96875 0.203125 C 5.769531 0.203125 4.085938 -0.441406 2.921875 -1.734375 C 1.765625 -3.035156 1.1875 -4.894531 1.1875 -7.3125 C 1.1875 -9.664062 1.859375 -11.5 3.203125 -12.8125 C 4.554688 -14.132812 6.425781 -14.796875 8.8125 -14.796875 C 10.3125 -14.796875 11.753906 -14.5 13.140625 -13.90625 L 12.109375 -11.421875 C 11.046875 -11.953125 9.941406 -12.21875 8.796875 -12.21875 C 7.453125 -12.21875 6.378906 -11.769531 5.578125 -10.875 C 4.773438 -9.976562 4.375 -8.769531 4.375 -7.25 C 4.375 -5.664062 4.695312 -4.457031 5.34375 -3.625 C 5.988281 -2.789062 6.929688 -2.375 8.171875 -2.375 C 8.816406 -2.375 9.472656 -2.441406 10.140625 -2.578125 L 10.140625 -5.625 L 7.375 -5.625 Z M 7.375 -8.1875 "/></g></g><g transform="translate(313.931591, 45.369713)"><g><path d="M 1.84375 0 L 1.84375 -14.59375 L 4.9375 -14.59375 L 4.9375 0 Z M 1.84375 0 "/></g></g><g transform="translate(320.696587, 45.369713)"><g><path d="M 8.03125 -12.21875 C 6.863281 -12.21875 5.960938 -11.78125 5.328125 -10.90625 C 4.691406 -10.03125 4.375 -8.8125 4.375 -7.25 C 4.375 -4 5.59375 -2.375 8.03125 -2.375 C 9.050781 -2.375 10.289062 -2.628906 11.75 -3.140625 L 11.75 -0.546875 C 10.550781 -0.046875 9.21875 0.203125 7.75 0.203125 C 5.625 0.203125 4 -0.4375 2.875 -1.71875 C 1.75 -3.007812 1.1875 -4.863281 1.1875 -7.28125 C 1.1875 -8.789062 1.460938 -10.113281 2.015625 -11.25 C 2.566406 -12.394531 3.359375 -13.269531 4.390625 -13.875 C 5.429688 -14.488281 6.644531 -14.796875 8.03125 -14.796875 C 9.445312 -14.796875 10.867188 -14.453125 12.296875 -13.765625 L 11.3125 -11.25 C 10.757812 -11.507812 10.207031 -11.734375 9.65625 -11.921875 C 9.101562 -12.117188 8.5625 -12.21875 8.03125 -12.21875 Z M 8.03125 -12.21875 "/></g></g><g transform="translate(333.717708, 45.369713)"><g><path d="M 15.078125 -7.3125 C 15.078125 -4.894531 14.476562 -3.035156 13.28125 -1.734375 C 12.082031 -0.441406 10.367188 0.203125 8.140625 0.203125 C 5.898438 0.203125 4.179688 -0.441406 2.984375 -1.734375 C 1.785156 -3.035156 1.1875 -4.898438 1.1875 -7.328125 C 1.1875 -9.765625 1.785156 -11.617188 2.984375 -12.890625 C 4.191406 -14.171875 5.914062 -14.8125 8.15625 -14.8125 C 10.394531 -14.8125 12.109375 -14.164062 13.296875 -12.875 C 14.484375 -11.59375 15.078125 -9.738281 15.078125 -7.3125 Z M 4.4375 -7.3125 C 4.4375 -5.6875 4.742188 -4.457031 5.359375 -3.625 C 5.972656 -2.800781 6.898438 -2.390625 8.140625 -2.390625 C 10.597656 -2.390625 11.828125 -4.03125 11.828125 -7.3125 C 11.828125 -10.601562 10.601562 -12.25 8.15625 -12.25 C 6.925781 -12.25 6 -11.832031 5.375 -11 C 4.75 -10.175781 4.4375 -8.945312 4.4375 -7.3125 Z M 4.4375 -7.3125 "/></g></g></g><g fill="#000000" fill-opacity="1"><g transform="translate(19.336958, 100.543346)"><g><path d="M 2.574219 -23.785156 C 4.964844 -25.320312 5.640625 -28.566406 5.148438 -30.160156 C 4.90625 -31.082031 3.1875 -30.957031 2.820312 -29.609375 C 3.433594 -28.078125 3.066406 -25.378906 1.226562 -24.09375 C 1.410156 -23.539062 1.902344 -23.355469 2.574219 -23.785156 Z M 6.5 -23.785156 C 8.890625 -25.320312 9.5625 -28.566406 9.074219 -30.160156 C 8.828125 -31.082031 7.109375 -30.957031 6.742188 -29.609375 C 7.355469 -28.078125 6.988281 -25.378906 5.148438 -24.09375 C 5.332031 -23.539062 5.824219 -23.355469 6.5 -23.785156 Z M 6.5 -23.785156 "/></g></g></g><g fill="#000000" fill-opacity="1"><g transform="translate(29.819942, 100.543346)"><g><path d="M 17.042969 6.070312 C 22.316406 6.070312 26.972656 1.101562 28.507812 -2.757812 C 29.121094 -4.351562 28.566406 -5.089844 27.832031 -4.71875 C 25.871094 -0.121094 21.640625 4.476562 16.980469 4.476562 C -0.183594 4.476562 2.511719 -33.902344 17.960938 -33.902344 C 21.945312 -33.902344 26.175781 -31.265625 26.851562 -26.730469 C 27.648438 -25.929688 28.445312 -26.789062 28.324219 -28.996094 C 28.136719 -31.9375 23.664062 -35.371094 17.960938 -35.371094 C -2.636719 -35.371094 -7.171875 6.070312 17.042969 6.070312 Z M 17.042969 6.070312 "/></g></g></g><g fill="#000000" fill-opacity="1"><g transform="translate(60.778453, 100.543346)"><g><path d="M 8.890625 -22.007812 C 6.3125 -21.761719 4.84375 -19.800781 4.351562 -17.347656 C 2.085938 -16.796875 0.550781 -14.957031 -0.246094 -12.628906 C -2.085938 -7.480469 -0.121094 0 6.007812 0 C 8.519531 0 10.484375 -1.714844 11.953125 -4.167969 C 12.382812 -4.105469 12.875 -4.046875 13.363281 -4.046875 C 17.902344 -3.921875 21.089844 -6.683594 22.867188 -11.769531 C 23.296875 -12.996094 22.253906 -13.058594 21.761719 -12.628906 C 19.800781 -7.050781 16.734375 -5.578125 13.546875 -5.578125 C 13.242188 -5.578125 12.996094 -5.578125 12.75 -5.640625 C 13.546875 -7.355469 14.101562 -9.316406 14.40625 -11.339844 C 15.386719 -17.65625 13.242188 -22.4375 8.890625 -22.007812 Z M 6.683594 -15.753906 C 7.480469 -15.753906 8.214844 -15.140625 8.519531 -14.039062 C 9.132812 -13.730469 10.175781 -14.40625 9.871094 -15.386719 C 9.503906 -16.429688 8.214844 -17.105469 6.925781 -17.347656 C 7.355469 -18.941406 8.152344 -20.109375 9.195312 -20.351562 C 12.015625 -21.027344 13.488281 -16.980469 12.566406 -11.464844 C 12.199219 -9.5625 11.769531 -7.664062 11.15625 -6.007812 C 7.601562 -7.480469 6.3125 -12.136719 6.683594 -15.753906 Z M 10.484375 -4.660156 C 9.503906 -2.699219 8.152344 -1.472656 6.375 -1.59375 C 4.167969 -1.777344 3.066406 -4.71875 3.066406 -7.910156 C 3.066406 -9.929688 3.433594 -12.078125 4.230469 -13.671875 C 4.78125 -9.929688 6.925781 -6.070312 10.484375 -4.660156 Z M 10.484375 -4.660156 "/></g></g></g><g fill="#000000" fill-opacity="1"><g transform="translate(82.541358, 100.543346)"><g><path d="M 1.101562 -11.769531 C 1.65625 -12.691406 3.308594 -16.859375 4.046875 -20.109375 C 4.476562 -19.984375 4.84375 -19.800781 5.148438 -19.679688 C 7.539062 -18.515625 2.453125 -8.890625 2.453125 -2.511719 C 2.453125 0.675781 3.738281 3.066406 7.601562 3.25 C 12.136719 3.496094 15.570312 -6.683594 17.347656 -11.769531 C 17.777344 -12.996094 16.734375 -13.058594 16.246094 -12.628906 C 14.285156 -7.050781 10.667969 1.714844 7.785156 1.714844 C 5.824219 1.714844 6.558594 -4.78125 7.050781 -8.152344 C 7.785156 -13.117188 9.992188 -19.371094 5.515625 -20.78125 C 5.089844 -20.90625 4.660156 -20.964844 4.230469 -21.148438 C 4.351562 -21.761719 4.414062 -22.316406 4.414062 -22.804688 C 4.414062 -24.335938 3.617188 -26.238281 1.902344 -26.238281 C -0.367188 -26.238281 -1.164062 -23.480469 -0.183594 -22.070312 C 0.367188 -21.210938 1.59375 -20.78125 2.757812 -20.414062 C 2.085938 -17.347656 0.550781 -13.855469 0 -12.628906 C -0.550781 -11.464844 0.613281 -11.523438 1.101562 -11.769531 Z M 1.347656 -23.171875 C 1.101562 -24.277344 1.53125 -25.132812 2.144531 -25.132812 C 2.820312 -25.132812 3.125 -24.214844 3.125 -22.988281 C 3.125 -22.558594 3.066406 -22.070312 3.003906 -21.578125 C 2.144531 -21.945312 1.472656 -22.4375 1.347656 -23.171875 Z M 1.347656 -23.171875 "/></g></g></g><g fill="#000000" fill-opacity="1"><g transform="translate(98.786906, 100.543346)"><g><path d="M 22.128906 -12.628906 C 20.167969 -7.050781 17.65625 0.859375 14.773438 0.859375 C 11.710938 0.859375 13.425781 -11.035156 13.792969 -14.40625 C 13.917969 -15.816406 13.117188 -16.367188 12.445312 -16.429688 C 12.445312 -18.636719 10.726562 -20.476562 8.765625 -20.78125 C -1.226562 -22.316406 -4.105469 -2.023438 3.984375 -2.023438 C 5.703125 -2.023438 7.664062 -4.046875 9.378906 -6.742188 C 8.949219 -2.269531 9.808594 2.144531 14.589844 2.390625 C 19.125 2.636719 21.457031 -6.683594 23.234375 -11.769531 C 23.664062 -12.996094 22.621094 -13.058594 22.128906 -12.628906 Z M 8.398438 -19.496094 C 9.746094 -19.496094 11.15625 -18.328125 10.605469 -15.511719 C 10.484375 -15.082031 10.789062 -14.773438 11.15625 -14.714844 L 10.359375 -12.136719 C 8.335938 -7.664062 5.703125 -3.433594 4.046875 -3.433594 C 0.550781 -3.433594 3.800781 -19.496094 8.398438 -19.496094 Z M 8.398438 -19.496094 "/></g></g></g><g fill="#000000" fill-opacity="1"><g transform="translate(120.917636, 100.543346)"><g><path d="M 1.101562 -11.769531 C 2.207031 -15.140625 3.617188 -18.328125 4.78125 -20.046875 C 6.867188 -22.988281 9.378906 -23.664062 10.238281 -22.5 C 11.648438 -20.597656 7.601562 -13.425781 4.660156 -11.648438 C 3.738281 -11.097656 4.476562 -10.484375 5.027344 -10.605469 C 7.171875 -10.484375 7.847656 -8.335938 7.601562 -4.535156 C 2.269531 0.121094 -7.722656 10.667969 -0.917969 13.976562 C 2.636719 15.695312 8.644531 12.136719 10.359375 2.144531 C 10.789062 -0.429688 10.726562 -2.882812 10.300781 -4.964844 C 14.101562 -8.214844 17.777344 -10.972656 18.085938 -11.769531 C 18.390625 -12.566406 17.777344 -12.875 17.226562 -12.628906 C 16.429688 -11.648438 13.179688 -9.195312 9.929688 -6.558594 C 9.257812 -8.765625 8.152344 -10.421875 6.867188 -11.21875 C 8.214844 -11.832031 9.746094 -12.875 10.972656 -14.40625 C 13.304688 -17.226562 13.304688 -22.253906 11.035156 -23.664062 C 8.828125 -25.074219 6.128906 -23.847656 3.921875 -20.90625 C 2.390625 -18.882812 0.980469 -15.511719 0 -12.628906 C -0.429688 -11.402344 0.675781 -11.339844 1.101562 -11.769531 Z M -0.675781 12.445312 C -3.617188 10.605469 1.53125 3.003906 7.355469 -2.390625 L 7.171875 -1.042969 C 5.515625 9.5625 1.472656 13.730469 -0.675781 12.445312 Z M -0.675781 12.445312 "/></g></g></g><g fill="#000000" fill-opacity="1"><g transform="translate(138.144055, 100.543346)"><g><path d="M 8.890625 -22.007812 C 6.3125 -21.761719 4.84375 -19.800781 4.351562 -17.347656 C 2.085938 -16.796875 0.550781 -14.957031 -0.246094 -12.628906 C -2.085938 -7.480469 -0.121094 0 6.007812 0 C 8.519531 0 10.484375 -1.714844 11.953125 -4.167969 C 12.382812 -4.105469 12.875 -4.046875 13.363281 -4.046875 C 17.902344 -3.921875 21.089844 -6.683594 22.867188 -11.769531 C 23.296875 -12.996094 22.253906 -13.058594 21.761719 -12.628906 C 19.800781 -7.050781 16.734375 -5.578125 13.546875 -5.578125 C 13.242188 -5.578125 12.996094 -5.578125 12.75 -5.640625 C 13.546875 -7.355469 14.101562 -9.316406 14.40625 -11.339844 C 15.386719 -17.65625 13.242188 -22.4375 8.890625 -22.007812 Z M 6.683594 -15.753906 C 7.480469 -15.753906 8.214844 -15.140625 8.519531 -14.039062 C 9.132812 -13.730469 10.175781 -14.40625 9.871094 -15.386719 C 9.503906 -16.429688 8.214844 -17.105469 6.925781 -17.347656 C 7.355469 -18.941406 8.152344 -20.109375 9.195312 -20.351562 C 12.015625 -21.027344 13.488281 -16.980469 12.566406 -11.464844 C 12.199219 -9.5625 11.769531 -7.664062 11.15625 -6.007812 C 7.601562 -7.480469 6.3125 -12.136719 6.683594 -15.753906 Z M 10.484375 -4.660156 C 9.503906 -2.699219 8.152344 -1.472656 6.375 -1.59375 C 4.167969 -1.777344 3.066406 -4.71875 3.066406 -7.910156 C 3.066406 -9.929688 3.433594 -12.078125 4.230469 -13.671875 C 4.78125 -9.929688 6.925781 -6.070312 10.484375 -4.660156 Z M 12.933594 -28.691406 C 12.933594 -29.363281 11.894531 -29.917969 10.914062 -29.058594 C 9.011719 -27.339844 6.742188 -25.929688 5.148438 -25.441406 C 4.71875 -23.910156 6.5 -22.742188 7.96875 -23.664062 C 9.441406 -24.582031 10.726562 -26.789062 12.933594 -28.691406 Z M 12.933594 -28.691406 "/></g></g></g><g fill="#000000" fill-opacity="1"><g transform="translate(159.90696, 100.543346)"><g><path d="M -0.613281 -1.59375 C -0.734375 0.246094 2.023438 0.550781 2.269531 -1.289062 C 5.027344 -11.894531 9.074219 -20.78125 12.078125 -20.78125 C 14.46875 -20.78125 13.855469 -16.980469 13.117188 -12.628906 C 12.136719 -6.742188 11.097656 0.367188 17.71875 0.675781 C 22.253906 0.917969 25.195312 -6.683594 26.972656 -11.769531 C 27.402344 -12.996094 26.359375 -13.058594 25.871094 -12.628906 C 23.910156 -7.050781 20.78125 -0.859375 17.902344 -0.859375 C 15.386719 -0.859375 16.0625 -7.664062 16.734375 -12.566406 C 17.472656 -17.902344 16.246094 -22.070312 12.261719 -22.070312 C 8.949219 -22.070312 5.945312 -17.347656 3.496094 -10.972656 C 3.738281 -12.507812 4.046875 -13.917969 4.414062 -14.898438 C 5.332031 -17.347656 1.347656 -17.839844 0.675781 -16.367188 C -0.675781 -13.363281 -0.304688 -5.945312 -0.613281 -1.59375 Z M -0.613281 -1.59375 "/></g></g></g><g fill="#000000" fill-opacity="1"><g transform="translate(185.77724, 100.543346)"><g/></g></g><g fill="#000000" fill-opacity="1"><g transform="translate(194.97283, 100.543346)"><g><path d="M 21.148438 -32.859375 C 17.960938 -34.207031 13.917969 -31.328125 11.28125 -21.519531 C 11.097656 -20.964844 10.914062 -20.167969 10.789062 -19.3125 C 10.300781 -20.046875 9.503906 -20.597656 8.519531 -20.78125 C -1.65625 -22.683594 -3.679688 -2.023438 4.414062 -2.023438 C 6.375 -2.023438 8.09375 -3.921875 9.746094 -6.5 C 10.054688 -1.59375 11.339844 2.574219 14.957031 2.699219 C 19.496094 2.820312 22.5 -6.683594 24.277344 -11.769531 C 24.707031 -12.996094 23.664062 -13.058594 23.171875 -12.628906 C 21.210938 -7.050781 18.023438 1.164062 15.140625 1.164062 C 12.691406 1.164062 12.75 -5.273438 13.304688 -10.851562 C 17.902344 -16.550781 27.894531 -30.039062 21.148438 -32.859375 Z M 8.152344 -19.496094 C 9.316406 -19.496094 10.238281 -18.453125 10.300781 -16.367188 C 9.992188 -14.160156 9.746094 -11.585938 9.6875 -9.074219 C 7.785156 -5.761719 5.945312 -3.433594 4.476562 -3.433594 C 0.980469 -3.433594 3.554688 -19.496094 8.152344 -19.496094 Z M 14.46875 -18.574219 C 17.042969 -28.996094 19.554688 -31.878906 20.90625 -31.328125 C 24.277344 -29.917969 17.839844 -19.496094 13.609375 -13.363281 C 13.917969 -15.816406 14.285156 -17.777344 14.46875 -18.574219 Z M 14.46875 -18.574219 "/></g></g></g><g fill="#000000" fill-opacity="1"><g transform="translate(218.145732, 100.543346)"><g><path d="M 4.78125 -2.085938 C 3.371094 -2.085938 2.820312 -4.535156 2.941406 -7.539062 C 6.621094 -10.605469 13.730469 -17.960938 8.707031 -20.230469 C -1.164062 -24.644531 -4.535156 -0.675781 4.71875 -0.675781 C 9.257812 -0.675781 14.34375 -7.171875 16.246094 -11.769531 C 16.734375 -12.933594 15.632812 -13.058594 15.140625 -12.628906 C 12.566406 -7.171875 7.785156 -2.085938 4.78125 -2.085938 Z M 8.277344 -18.820312 C 10.542969 -17.472656 6.007812 -12.261719 3.066406 -9.316406 C 3.617188 -14.46875 5.703125 -20.230469 8.277344 -18.820312 Z M 8.277344 -18.820312 "/></g></g></g><g fill="#000000" fill-opacity="1"><g transform="translate(233.287821, 100.543346)"><g/></g></g><g fill="#000000" fill-opacity="1"><g transform="translate(242.483411, 100.543346)"><g><path d="M 14.039062 -35.371094 C 3.679688 -35.371094 -1.839844 -21.578125 1.59375 -12.261719 C 2.269531 -10.421875 3.679688 -9.625 4.046875 -11.15625 C -1.226562 -18.941406 4.964844 -33.902344 13.855469 -33.902344 C 22.007812 -33.902344 21.945312 -18.023438 20.292969 -6.925781 C 15.019531 -5.703125 9.6875 -4.71875 6.925781 -1.164062 C 4.046875 2.511719 4.597656 6.621094 6.925781 8.828125 C 10.359375 12.136719 17.289062 11.710938 21.210938 3.25 C 22.253906 0.917969 23.296875 -2.511719 24.03125 -6.4375 C 27.402344 -7.355469 30.652344 -8.765625 32.921875 -11.464844 C 33.472656 -12.078125 32.980469 -12.996094 32.183594 -12.628906 C 30.222656 -10.300781 27.402344 -8.949219 24.335938 -8.03125 C 26.300781 -20.046875 25.320312 -35.371094 14.039062 -35.371094 Z M 18.328125 1.714844 C 15.632812 9.441406 10.542969 10.175781 8.09375 7.664062 C 6.4375 5.945312 6.128906 2.636719 8.277344 -0.304688 C 10.605469 -3.496094 15.203125 -4.351562 20.046875 -5.457031 C 19.496094 -2.453125 18.882812 0.121094 18.328125 1.714844 Z M 18.328125 1.714844 "/></g></g></g><g fill="#000000" fill-opacity="1"><g transform="translate(274.667998, 100.543346)"><g><path d="M 4.78125 -2.085938 C 3.371094 -2.085938 2.820312 -4.535156 2.941406 -7.539062 C 6.621094 -10.605469 13.730469 -17.960938 8.707031 -20.230469 C -1.164062 -24.644531 -4.535156 -0.675781 4.71875 -0.675781 C 9.257812 -0.675781 14.34375 -7.171875 16.246094 -11.769531 C 16.734375 -12.933594 15.632812 -13.058594 15.140625 -12.628906 C 12.566406 -7.171875 7.785156 -2.085938 4.78125 -2.085938 Z M 8.277344 -18.820312 C 10.542969 -17.472656 6.007812 -12.261719 3.066406 -9.316406 C 3.617188 -14.46875 5.703125 -20.230469 8.277344 -18.820312 Z M 8.277344 -18.820312 "/></g></g></g><g fill="#000000" fill-opacity="1"><g transform="translate(289.810087, 100.543346)"><g><path d="M 0 -12.628906 C -0.429688 -11.402344 0.613281 -11.523438 1.101562 -11.769531 C 1.53125 -12.875 2.453125 -14.160156 3.496094 -15.449219 C 4.292969 -13.117188 5.210938 -10.542969 5.578125 -6.988281 C 5.578125 -6.5 5.640625 -6.070312 5.640625 -5.578125 C 3.800781 -4.597656 1.960938 -3.433594 0.304688 -1.714844 C -1.042969 -0.367188 -2.023438 1.777344 -1.042969 3.371094 C -0.613281 4.105469 0.121094 4.660156 0.980469 4.78125 C 4.84375 5.394531 10.542969 -0.121094 10.113281 -6.3125 C 12.875 -7.601562 15.386719 -9.011719 16.917969 -11.769531 C 17.53125 -12.875 16.367188 -12.933594 15.9375 -12.628906 C 14.652344 -10.300781 12.445312 -8.949219 9.992188 -7.722656 C 9.257812 -12.445312 6.925781 -15.082031 5.332031 -17.777344 C 6.253906 -19.003906 6.988281 -20.230469 7.234375 -21.332031 C 7.539062 -22.804688 7.296875 -24.890625 5.457031 -25.195312 C 3.679688 -25.503906 1.960938 -24.03125 1.960938 -22.128906 C 1.960938 -20.167969 2.390625 -18.515625 3.003906 -16.734375 C 1.714844 -15.140625 0.367188 -13.671875 0 -12.628906 Z M 0.613281 3.496094 C -0.367188 3.1875 -0.246094 1.347656 1.101562 -0.367188 C 2.328125 -1.960938 3.863281 -3.125 5.515625 -4.046875 C 5.027344 0.429688 2.574219 4.046875 0.613281 3.496094 Z M 3.800781 -21.761719 C 3.617188 -23.113281 4.535156 -24.09375 5.394531 -23.96875 C 6.128906 -23.847656 6.253906 -22.925781 6.007812 -21.761719 C 5.824219 -20.84375 5.332031 -19.863281 4.660156 -18.882812 C 4.230469 -19.800781 3.921875 -20.722656 3.800781 -21.761719 Z M 3.800781 -21.761719 "/></g></g></g><g fill="#000000" fill-opacity="1"><g transform="translate(305.749112, 100.543346)"><g><path d="M 23.480469 -12.628906 C 21.519531 -7.050781 18.453125 1.65625 15.570312 1.65625 C 12.507812 1.65625 14.773438 -14.46875 15.140625 -17.839844 C 15.386719 -20.046875 13.363281 -20.167969 13.058594 -19.496094 C 12.691406 -18.699219 12.078125 -16.796875 11.523438 -14.40625 C 9.5625 -8.644531 6.804688 -0.980469 4.351562 -0.980469 C 1.289062 -0.980469 3.679688 -12.136719 4.046875 -15.511719 C 4.292969 -17.71875 1.53125 -17.410156 1.226562 -16.734375 C -0.121094 -13.730469 -4.71875 0.121094 4.167969 0.550781 C 6.621094 0.675781 8.707031 -2.882812 10.359375 -6.988281 C 10.054688 -1.839844 10.972656 2.941406 15.386719 3.1875 C 19.921875 3.433594 22.804688 -6.683594 24.582031 -11.769531 C 25.011719 -12.996094 23.96875 -13.058594 23.480469 -12.628906 Z M 12.628906 -25.992188 C 12.628906 -26.667969 11.585938 -27.21875 10.605469 -26.359375 C 8.707031 -24.644531 6.4375 -23.234375 4.84375 -22.742188 C 4.414062 -21.210938 6.191406 -20.046875 7.664062 -20.964844 C 9.132812 -21.886719 10.421875 -24.09375 12.628906 -25.992188 Z M 12.628906 -25.992188 "/></g></g></g><g fill="#000000" fill-opacity="1"><g transform="translate(329.228537, 100.543346)"><g><path d="M 0 -12.628906 C -0.429688 -11.402344 0.613281 -11.523438 1.101562 -11.769531 C 1.53125 -12.875 2.453125 -14.160156 3.496094 -15.449219 C 4.292969 -13.117188 5.210938 -10.542969 5.578125 -6.988281 C 5.578125 -6.5 5.640625 -6.070312 5.640625 -5.578125 C 3.800781 -4.597656 1.960938 -3.433594 0.304688 -1.714844 C -1.042969 -0.367188 -2.023438 1.777344 -1.042969 3.371094 C -0.613281 4.105469 0.121094 4.660156 0.980469 4.78125 C 4.84375 5.394531 10.542969 -0.121094 10.113281 -6.3125 C 12.875 -7.601562 15.386719 -9.011719 16.917969 -11.769531 C 17.53125 -12.875 16.367188 -12.933594 15.9375 -12.628906 C 14.652344 -10.300781 12.445312 -8.949219 9.992188 -7.722656 C 9.257812 -12.445312 6.925781 -15.082031 5.332031 -17.777344 C 6.253906 -19.003906 6.988281 -20.230469 7.234375 -21.332031 C 7.539062 -22.804688 7.296875 -24.890625 5.457031 -25.195312 C 3.679688 -25.503906 1.960938 -24.03125 1.960938 -22.128906 C 1.960938 -20.167969 2.390625 -18.515625 3.003906 -16.734375 C 1.714844 -15.140625 0.367188 -13.671875 0 -12.628906 Z M 0.613281 3.496094 C -0.367188 3.1875 -0.246094 1.347656 1.101562 -0.367188 C 2.328125 -1.960938 3.863281 -3.125 5.515625 -4.046875 C 5.027344 0.429688 2.574219 4.046875 0.613281 3.496094 Z M 3.800781 -21.761719 C 3.617188 -23.113281 4.535156 -24.09375 5.394531 -23.96875 C 6.128906 -23.847656 6.253906 -22.925781 6.007812 -21.761719 C 5.824219 -20.84375 5.332031 -19.863281 4.660156 -18.882812 C 4.230469 -19.800781 3.921875 -20.722656 3.800781 -21.761719 Z M 3.800781 -21.761719 "/></g></g></g><g fill="#000000" fill-opacity="1"><g transform="translate(345.167562, 100.543346)"><g><path d="M 2.574219 -23.785156 C 4.964844 -25.320312 5.640625 -28.566406 5.148438 -30.160156 C 4.90625 -31.082031 3.1875 -30.957031 2.820312 -29.609375 C 3.433594 -28.078125 3.066406 -25.378906 1.226562 -24.09375 C 1.410156 -23.539062 1.902344 -23.355469 2.574219 -23.785156 Z M 6.5 -23.785156 C 8.890625 -25.320312 9.5625 -28.566406 9.074219 -30.160156 C 8.828125 -31.082031 7.109375 -30.957031 6.742188 -29.609375 C 7.355469 -28.078125 6.988281 -25.378906 5.148438 -24.09375 C 5.332031 -23.539062 5.824219 -23.355469 6.5 -23.785156 Z M 6.5 -23.785156 "/></g></g></g></svg>