<svg xmlns="http://www.w3.org/2000/svg" xmlns:xlink="http://www.w3.org/1999/xlink" width="50" zoomAndPan="magnify" viewBox="0 0 37.5 37.499999" height="50" preserveAspectRatio="xMidYMid meet" version="1.0"><defs><clipPath id="e3df81a030"><path d="M 0 0 L 37.007812 0 L 37.007812 37.007812 L 0 37.007812 Z M 0 0 " clip-rule="nonzero"/></clipPath><clipPath id="31efafd5b0"><path d="M 18.75 0 C 8.394531 0 0 8.394531 0 18.75 C 0 29.105469 8.394531 37.5 18.75 37.5 C 29.105469 37.5 37.5 29.105469 37.5 18.75 C 37.5 8.394531 29.105469 0 18.75 0 " clip-rule="nonzero"/></clipPath><clipPath id="c3fb81208f"><path d="M 5.960938 5.960938 L 31.460938 5.960938 L 31.460938 31.460938 L 5.960938 31.460938 Z M 5.960938 5.960938 " clip-rule="nonzero"/></clipPath><clipPath id="fc31e59223"><path d="M 18.710938 5.960938 C 11.671875 5.960938 5.960938 11.671875 5.960938 18.710938 C 5.960938 25.753906 11.671875 31.460938 18.710938 31.460938 C 25.753906 31.460938 31.460938 25.753906 31.460938 18.710938 C 31.460938 11.671875 25.753906 5.960938 18.710938 5.960938 " clip-rule="nonzero"/></clipPath><clipPath id="500d001a39"><path d="M 25 3 L 37.007812 3 L 37.007812 16 L 25 16 Z M 25 3 " clip-rule="nonzero"/></clipPath></defs><g clip-path="url(#e3df81a030)"><g clip-path="url(#31efafd5b0)"><path stroke-linecap="butt" transform="matrix(0.75, 0, 0, 0.75, 0.0000005, 0)" fill="none" stroke-linejoin="miter" d="M 25.000002 0 C 11.192709 0 -0.000000666667 11.19271 -0.000000666667 25.000003 C -0.000000666667 38.807296 11.192709 50.000006 25.000002 50.000006 C 38.807296 50.000006 50.000005 38.807296 50.000005 25.000003 C 50.000005 11.19271 38.807296 0 25.000002 0 " stroke="#000000" stroke-width="2" stroke-opacity="1" stroke-miterlimit="4"/></g></g><g clip-path="url(#c3fb81208f)"><g clip-path="url(#fc31e59223)"><path stroke-linecap="butt" transform="matrix(0.747938, 0, 0, 0.747938, 5.962499, 5.962499)" fill="none" stroke-linejoin="miter" d="M 17.044788 -0.00208758 C 7.633492 -0.00208758 -0.00208825 7.633493 -0.00208825 17.044789 C -0.00208825 26.461308 7.633492 34.091665 17.044788 34.091665 C 26.461307 34.091665 34.091665 26.461308 34.091665 17.044789 C 34.091665 7.633493 26.461307 -0.00208758 17.044788 -0.00208758 " stroke="#000000" stroke-width="2" stroke-opacity="1" stroke-miterlimit="4"/></g></g><g clip-path="url(#500d001a39)"><path stroke-linecap="butt" transform="matrix(0.516215, -0.516215, 0.53033, 0.53033, 28.990851, 11.514482)" fill="none" stroke-linejoin="miter" d="M 0.000186616 0.503205 L 8.221844 0.499522 " stroke="#000000" stroke-width="1" stroke-opacity="1" stroke-miterlimit="4"/></g><path stroke-linecap="butt" transform="matrix(0.516215, -0.516215, 0.53033, 0.53033, 4.690855, 31.138609)" fill="none" stroke-linejoin="miter" d="M 0.00236518 0.499605 L 8.220239 0.499605 " stroke="#000000" stroke-width="1" stroke-opacity="1" stroke-miterlimit="4"/><path stroke-linecap="butt" transform="matrix(-0.516215, -0.516215, 0.53033, -0.53033, 7.875051, 12.044812)" fill="none" stroke-linejoin="miter" d="M -0.001949 0.498875 L 8.223492 0.498875 " stroke="#000000" stroke-width="1" stroke-opacity="1" stroke-miterlimit="4"/><path stroke-linecap="butt" transform="matrix(-0.516215, -0.516215, 0.53033, -0.53033, 7.875051, 12.044812)" fill="none" stroke-linejoin="miter" d="M -0.001949 0.498875 L 8.223492 0.498875 " stroke="#000000" stroke-width="1" stroke-opacity="1" stroke-miterlimit="4"/><path stroke-linecap="butt" transform="matrix(-0.516215, -0.516215, 0.53033, -0.53033, 7.875051, 12.044812)" fill="none" stroke-linejoin="miter" d="M -0.001949 0.498875 L 8.223492 0.498875 " stroke="#000000" stroke-width="1" stroke-opacity="1" stroke-miterlimit="4"/><path stroke-linecap="butt" transform="matrix(-0.516215, -0.516215, 0.53033, -0.53033, 7.875051, 12.044812)" fill="none" stroke-linejoin="miter" d="M -0.001949 0.498875 L 8.223492 0.498875 " stroke="#000000" stroke-width="1" stroke-opacity="1" stroke-miterlimit="4"/><path stroke-linecap="butt" transform="matrix(-0.516215, -0.516215, 0.53033, -0.53033, 7.875051, 12.044812)" fill="none" stroke-linejoin="miter" d="M -0.001949 0.498875 L 8.223492 0.498875 " stroke="#000000" stroke-width="1" stroke-opacity="1" stroke-miterlimit="4"/><path stroke-linecap="butt" transform="matrix(-0.516215, -0.516215, 0.53033, -0.53033, 32.137549, 31.668938)" fill="none" stroke-linejoin="miter" d="M 0.0017426 0.500999 L 8.2234 0.497316 " stroke="#000000" stroke-width="1" stroke-opacity="1" stroke-miterlimit="4"/></svg>