<svg xmlns="http://www.w3.org/2000/svg" xmlns:xlink="http://www.w3.org/1999/xlink" width="400" zoomAndPan="magnify" viewBox="0 0 300 149.999998" height="200" preserveAspectRatio="xMidYMid meet" version="1.0"><defs><clipPath id="e20e098799"><path d="M 233 7 L 265.84375 7 L 265.84375 40 L 233 40 Z M 233 7 " clip-rule="nonzero"/></clipPath><clipPath id="74082d0857"><path d="M 34.34375 0 L 146.84375 0 L 146.84375 150 L 34.34375 150 Z M 34.34375 0 " clip-rule="nonzero"/></clipPath></defs><path fill="#737373" d="M 234.652344 43.625 C 230.679688 38.898438 225.511719 36.503906 219.28125 36.503906 C 212.273438 36.503906 205.539062 39.671875 202.660156 41.023438 C 185.351562 49.164062 177.113281 62.511719 177.472656 81.824219 C 177.75 96.386719 191.363281 149.816406 213.378906 149.828125 C 213.445312 149.828125 214.097656 149.808594 214.152344 149.796875 C 222.40625 149.339844 228.871094 145.441406 232.347656 138.84375 C 237.195312 129.667969 235.769531 116.679688 228.644531 104.925781 C 218.925781 88.917969 224.289062 83.375 229.480469 78.007812 C 241.230469 65.867188 243.058594 53.652344 234.652344 43.625 Z M 234.652344 43.625 " fill-opacity="1" fill-rule="nonzero"/><path fill="#737373" d="M 167.332031 46.183594 C 161.964844 46.183594 157.597656 50.542969 157.597656 55.902344 C 157.597656 61.265625 161.964844 65.625 167.332031 65.625 C 172.699219 65.625 177.066406 61.265625 177.066406 55.902344 C 177.066406 50.542969 172.699219 46.183594 167.332031 46.183594 Z M 167.332031 46.183594 " fill-opacity="1" fill-rule="nonzero"/><path fill="#737373" d="M 179.054688 46.183594 C 184.429688 46.183594 188.789062 41.824219 188.789062 36.460938 C 188.789062 31.101562 184.429688 26.742188 179.054688 26.742188 C 173.695312 26.742188 169.320312 31.101562 169.320312 36.460938 C 169.320312 41.824219 173.695312 46.183594 179.054688 46.183594 Z M 179.054688 46.183594 " fill-opacity="1" fill-rule="nonzero"/><path fill="#737373" d="M 197.78125 33.222656 C 203.148438 33.222656 207.515625 28.863281 207.515625 23.5 C 207.515625 18.140625 203.148438 13.78125 197.78125 13.78125 C 192.417969 13.78125 188.046875 18.140625 188.046875 23.5 C 188.046875 28.863281 192.417969 33.222656 197.78125 33.222656 Z M 197.78125 33.222656 " fill-opacity="1" fill-rule="nonzero"/><path fill="#737373" d="M 219.972656 26.742188 C 225.335938 26.742188 229.707031 22.382812 229.707031 17.019531 C 229.707031 11.660156 225.335938 7.300781 219.972656 7.300781 C 214.601562 7.300781 210.238281 11.660156 210.238281 17.019531 C 210.238281 22.382812 214.597656 26.742188 219.972656 26.742188 Z M 219.972656 26.742188 " fill-opacity="1" fill-rule="nonzero"/><g clip-path="url(#e20e098799)"><path fill="#737373" d="M 249.621094 7.300781 C 240.671875 7.300781 233.398438 14.5625 233.398438 23.5 C 233.398438 32.4375 240.671875 39.703125 249.621094 39.703125 C 258.570312 39.703125 265.84375 32.4375 265.84375 23.5 C 265.84375 14.5625 258.554688 7.300781 249.621094 7.300781 Z M 249.621094 7.300781 " fill-opacity="1" fill-rule="nonzero"/></g><g clip-path="url(#74082d0857)"><path fill="#737373" d="M 141.050781 10.007812 C 135.023438 1.472656 124.742188 -1.25 114.875 1.238281 C 111.625 2.066406 108.4375 3.015625 105.304688 4.082031 C 100.402344 5.800781 95.496094 6.632812 90.59375 6.632812 C 85.6875 6.632812 80.785156 5.800781 75.878906 4.082031 C 72.75 3.015625 69.5 2.007812 66.308594 1.238281 C 56.441406 -1.25 46.160156 1.472656 40.132812 10.007812 C 33.808594 18.898438 32.925781 31.585938 36.292969 41.777344 C 41.253906 56.597656 48.996094 69.695312 48.050781 85.933594 C 47.046875 104.191406 47.636719 129.203125 58.332031 144.910156 C 61.875 150.125 68.789062 152.140625 72.039062 145.324219 C 76.117188 136.613281 75.050781 127.1875 73.988281 117.824219 C 72.925781 108.398438 71.921875 98.914062 76.234375 90.203125 C 79.1875 84.277344 83.972656 81.371094 90.59375 81.371094 C 97.210938 81.371094 101.996094 84.277344 104.949219 90.203125 C 109.261719 98.976562 108.257812 108.398438 107.195312 117.824219 C 106.132812 127.1875 105.066406 136.613281 109.144531 145.324219 C 112.335938 152.140625 119.308594 150.125 122.851562 144.910156 C 133.546875 129.203125 134.199219 104.191406 133.132812 85.933594 C 132.1875 69.695312 139.988281 56.65625 144.890625 41.777344 C 148.261719 31.585938 147.375 18.898438 141.050781 10.007812 Z M 141.050781 10.007812 " fill-opacity="1" fill-rule="nonzero"/></g></svg>